<?xml version="1.0" encoding="UTF-8" standalone="no"?>
<!-- Created with Inkscape (http://www.inkscape.org/) -->

<svg
   xmlns:dc="http://purl.org/dc/elements/1.1/"
   xmlns:cc="http://creativecommons.org/ns#"
   xmlns:rdf="http://www.w3.org/1999/02/22-rdf-syntax-ns#"
   xmlns:svg="http://www.w3.org/2000/svg"
   xmlns="http://www.w3.org/2000/svg"
   xmlns:xlink="http://www.w3.org/1999/xlink"
   xmlns:sodipodi="http://sodipodi.sourceforge.net/DTD/sodipodi-0.dtd"
   xmlns:inkscape="http://www.inkscape.org/namespaces/inkscape"
   width="134.64566"
   height="134.64566"
   id="svg3039"
   version="1.1"
   inkscape:version="0.48.5 r10040"
   sodipodi:docname="freifunk-nandu-transparent-vereinfacht.svg"
   inkscape:export-filename="/home/rpp/Privat/Freifunk/Bilder/freifunk-nandu-transparent-vereinfacht.png"
   inkscape:export-xdpi="899.63519"
   inkscape:export-ydpi="899.63519">
  <defs
     id="defs3041">
    <clipPath
       clipPathUnits="userSpaceOnUse"
       id="clipPath4598">
      <path
         sodipodi:nodetypes="cccccccc"
         inkscape:connector-curvature="0"
         id="path4600"
         d="m -4588.8535,7377.4531 -67.2619,-33.1184 44.2416,-47.9831 z m -112.1113,-81.1015 44.2416,47.9741 -67.2575,33.1274 z"
         style="fill:#ff0000;fill-opacity:1;fill-rule:evenodd;stroke:none" />
    </clipPath>
    <clipPath
       clipPathUnits="userSpaceOnUse"
       id="clipPath4594">
      <path
         sodipodi:nodetypes="cccccccc"
         inkscape:connector-curvature="0"
         id="path4596"
         d="m -4611.873,7366.1514 -44.3484,-21.8363 29.1702,-31.6371 z m -73.9194,-53.4734 29.1702,31.6312 -44.3455,21.8422 z"
         style="fill:#ff0000;fill-opacity:1;fill-rule:evenodd;stroke:none" />
    </clipPath>
    <clipPath
       clipPathUnits="userSpaceOnUse"
       id="clipPath4590">
      <path
         sodipodi:nodetypes="cccccccc"
         inkscape:connector-curvature="0"
         id="path4592"
         d="m -4623.8797,7360.2562 -32.3968,-15.9515 21.309,-23.1111 z m -53.9986,-39.0626 21.3091,23.1067 -32.3947,15.9559 z"
         style="fill:#ff0000;fill-opacity:1;fill-rule:evenodd;stroke:none" />
    </clipPath>
    <clipPath
       clipPathUnits="userSpaceOnUse"
       id="clipPath4434">
      <rect
         transform="matrix(0.70710678,0.70710678,-0.70710678,0.70710678,0,0)"
         ry="1.8153608"
         rx="1.2299931"
         y="8491.9297"
         x="1914.3979"
         height="261.76361"
         width="261.76361"
         id="rect4436"
         style="opacity:0.57661288;fill:#ff0000;stroke:none" />
    </clipPath>
    <path
       style="fill:#333333;fill-opacity:1;stroke:none;display:inline"
       d="m -4510.8685,8601.4044 c 8.0696,137.1876 125.824,241.8589 263.0119,233.789 137.1877,-8.0696 241.8588,-125.8241 233.789,-263.0118 -8.0697,-137.1877 -125.8241,-241.859 -263.0119,-233.7891 -137.1878,8.0695 -241.8589,125.824 -233.789,263.0119 z"
       id="path4818"
       inkscape:connector-curvature="0" />
    <path
       sodipodi:type="arc"
       style="fill:none;stroke:none;display:inline"
       id="path8788"
       sodipodi:cx="-167.14285"
       sodipodi:cy="679.50507"
       sodipodi:rx="252.85715"
       sodipodi:ry="252.85715"
       d="m 85.714294,679.50507 a 252.85715,252.85715 0 1 1 -505.714294,0 252.85715,252.85715 0 1 1 505.714294,0 z"
       transform="matrix(-0.51916951,0.26351034,0.26351031,0.51916954,-699.44695,643.73975)" />
  </defs>
  <sodipodi:namedview
     id="base"
     pagecolor="#ffffff"
     bordercolor="#666666"
     borderopacity="1.0"
     inkscape:pageopacity="0"
     inkscape:pageshadow="2"
     inkscape:zoom="6.3133923"
     inkscape:cx="91.719503"
     inkscape:cy="78.341286"
     inkscape:document-units="px"
     inkscape:current-layer="layer1"
     showgrid="false"
     units="cm"
     showguides="true"
     inkscape:guide-bbox="true"
     guidecolor="#d7d7ff"
     guideopacity="0.49803922"
     inkscape:window-width="1849"
     inkscape:window-height="1021"
     inkscape:window-x="69"
     inkscape:window-y="28"
     inkscape:window-maximized="0"
     fit-margin-top="0"
     fit-margin-left="0"
     fit-margin-right="0"
     fit-margin-bottom="0">
    <sodipodi:guide
       orientation="1,0"
       position="8.8582677,7.078125e-05"
       id="guide3047" />
    <sodipodi:guide
       orientation="1,0"
       position="125.7874,7.078125e-05"
       id="guide3051" />
    <sodipodi:guide
       orientation="0,1"
       position="0,8.8583385"
       id="guide3053" />
    <sodipodi:guide
       orientation="0,1"
       position="0,125.7874"
       id="guide3055" />
    <sodipodi:guide
       orientation="1,0"
       position="23.031496,0"
       id="guide8855" />
    <sodipodi:guide
       orientation="1,0"
       position="111.61417,0"
       id="guide8857" />
    <sodipodi:guide
       orientation="0,1"
       position="0,23.031496"
       id="guide8859" />
    <sodipodi:guide
       orientation="0,1"
       position="0,111.61417"
       id="guide8861" />
  </sodipodi:namedview>
  <metadata
     id="metadata3044">
    <rdf:RDF>
      <cc:Work
         rdf:about="">
        <dc:format>image/svg+xml</dc:format>
        <dc:type
           rdf:resource="http://purl.org/dc/dcmitype/StillImage" />
        <dc:title />
      </cc:Work>
    </rdf:RDF>
  </metadata>
  <g
     inkscape:label="Layer 1"
     inkscape:groupmode="layer"
     id="layer1"
     transform="translate(0,-917.71523)">
    <g
       id="g3010">
      <path
         sodipodi:nodetypes="ssssssssss"
         inkscape:connector-curvature="0"
         id="path4790"
         d="m 24.803146,985.03805 c 0,23.45135 19.070835,42.51725 42.522153,42.51725 23.451315,0 42.517221,-19.0659 42.517221,-42.51725 0,-23.45131 -19.065906,-42.51722 -42.517221,-42.51722 -23.451318,0 -42.522153,19.06591 -42.522153,42.51722 z m 79.820904,0 c 0,20.63215 -16.666592,37.30365 -37.298751,37.30365 -20.632162,0 -37.303681,-16.6715 -37.303681,-37.30365 0,-20.63216 16.671519,-37.29874 37.303681,-37.29874 20.632159,0 37.298751,16.66658 37.298751,37.29874 z"
         style="font-size:medium;font-style:normal;font-variant:normal;font-weight:normal;font-stretch:normal;text-indent:0;text-align:start;text-decoration:none;line-height:normal;letter-spacing:normal;word-spacing:normal;text-transform:none;direction:ltr;block-progression:tb;writing-mode:lr-tb;text-anchor:start;baseline-shift:baseline;color:#000000;fill:#e5287a;fill-opacity:1;stroke:none;stroke-width:33.04941177;marker:none;visibility:visible;display:inline;overflow:visible;enable-background:accumulate;font-family:Sans;-inkscape-font-specification:Sans" />
      <path
         inkscape:connector-curvature="0"
         id="path4792"
         d="m 67.324975,950.20334 c 19.224912,0 34.834835,15.60993 34.834835,34.83484 0,19.22492 -15.609923,34.83482 -34.834835,34.83482 -19.224916,0 -34.838992,-15.6099 -34.838992,-34.83482 0,-19.22491 15.614076,-34.83484 34.838992,-34.83484 z m 0,2.45082 c -17.901004,0 -32.388175,14.48302 -32.388175,32.38402 0,17.90102 14.487171,32.38822 32.388175,32.38822 17.901001,0 32.384018,-14.4872 32.384018,-32.38822 0,-17.901 -14.483017,-32.38402 -32.384018,-32.38402 z"
         style="font-size:medium;font-style:normal;font-variant:normal;font-weight:normal;font-stretch:normal;text-indent:0;text-align:start;text-decoration:none;line-height:normal;letter-spacing:normal;word-spacing:normal;text-transform:none;direction:ltr;block-progression:tb;writing-mode:lr-tb;text-anchor:start;baseline-shift:baseline;color:#000000;fill:#ededed;fill-opacity:1;stroke:none;stroke-width:18.42903709;marker:none;visibility:visible;display:inline;overflow:visible;enable-background:accumulate;font-family:Sans;-inkscape-font-specification:Sans" />
      <path
         sodipodi:nodetypes="csccscccsccscccsccscc"
         inkscape:connector-curvature="0"
         id="path4794"
         d="m 79.086926,965.29364 c -5.154937,-3.83757 -11.825264,-5.6246 -18.643898,-4.39859 -3.733161,0.67122 -7.10387,2.17009 -9.969376,4.27517 l 1.09695,1.49824 c 2.641196,-1.94289 5.749792,-3.33482 9.199372,-3.95506 6.291864,-1.13128 12.443798,0.51828 17.199099,4.05284 z m -3.750254,4.96347 c -3.818492,-2.84105 -8.745314,-4.17003 -13.787311,-3.26347 -2.764379,0.49703 -5.269761,1.6133 -7.391678,3.17589 l 1.120004,1.51429 c 1.895165,-1.38917 4.133064,-2.38814 6.605646,-2.83272 4.510127,-0.81093 8.912964,0.36701 12.327475,2.89013 z m -3.475868,4.58109 c -2.581462,-1.89291 -5.900493,-2.76403 -9.288718,-2.15482 -1.865144,0.33536 -3.551533,1.0856 -4.984695,2.1376 l 1.108475,1.50627 c 1.20946,-0.88033 2.63544,-1.50326 4.210193,-1.7864 2.862111,-0.51461 5.649563,0.20976 7.82086,1.793 z"
         clip-path="none"
         style="font-size:medium;font-style:normal;font-variant:normal;font-weight:normal;font-stretch:normal;text-indent:0;text-align:start;text-decoration:none;line-height:normal;letter-spacing:normal;word-spacing:normal;text-transform:none;direction:ltr;block-progression:tb;writing-mode:lr-tb;text-anchor:start;baseline-shift:baseline;color:#000000;fill:#fdbc41;fill-opacity:1;stroke:none;stroke-width:2.82827973;marker:none;visibility:visible;display:inline;overflow:visible;enable-background:accumulate;font-family:Sans;-inkscape-font-specification:Sans" />
      <path
         sodipodi:type="arc"
         style="fill:none;stroke:none;display:inline"
         id="path8830"
         sodipodi:cx="-167.14285"
         sodipodi:cy="679.50507"
         sodipodi:rx="252.85715"
         sodipodi:ry="252.85715"
         d="m 85.714294,679.50507 c 0,139.64914 -113.208,252.85714 -252.857144,252.85714 C -306.792,932.36221 -420,819.15421 -420,679.50507 c 0,-139.64915 113.208,-252.85715 252.85715,-252.85715 139.649144,0 252.857144,113.208 252.857144,252.85715 z"
         transform="matrix(-0.14519444,0.07369508,0.07369507,0.14519445,-6.9663583,898.66962)" />
      <text
         sodipodi:linespacing="125%"
         id="text3057-2"
         style="font-size:36.71062851px;font-style:normal;font-weight:normal;line-height:125%;letter-spacing:0px;word-spacing:0px;fill:#333333;fill-opacity:1;stroke:none;font-family:Sans"
         xml:space="preserve"><textPath
           id="textPath3309"
           xlink:href="#path4790"><tspan
   dy="-1.7360172"
   dx="14.560174"
   id="tspan3061-0"
   style="font-size:3.67106271px;font-weight:bold;fill:#333333;fill-opacity:1;-inkscape-font-specification:Sans Bold">lauenburg.freifunk.net</tspan></textPath></text>
      <g
         transform="matrix(0.05954785,0,0,0.05954785,49.301862,967.01344)"
         id="g3455">
        <path
           inkscape:connector-curvature="0"
           id="path3459"
           d="m 347.96038,761.69512 c -24.23341,-13.13413 -20.68936,-43.66612 -34.58705,-64.23828 -19.42005,-33.26744 -28.19652,-73.9351 -58.50916,-99.70201 -11.1843,-13.40705 -17.04426,-34.36331 -6.1627,-49.80255 4.88029,-16.80048 -2.76959,-39.88862 -18.07653,-47.98354 -12.91547,-1.87955 -15.03992,17.28089 -27.37832,19.25845 -11.0912,2.94352 -19.46267,12.21012 -16.88225,24.21013 0.12668,16.60834 -18.03289,26.96475 -18.04657,43.97471 -7.80684,43.09358 -17.21112,86.17794 -17.65889,130.14358 12.90464,16.30062 40.01078,2.01555 52.53635,18.19702 -10.37668,9.27742 -33.85543,-2.26798 -39.75342,11.36711 -15.623,12.34294 -29.30286,-8.14917 -40.59719,-17.16962 -7.72124,-8.38061 -0.77502,-22.91908 -2.53068,-33.80422 3.51262,-10.69541 11.56869,-20.1613 11.61968,-32.3927 7.13461,-28.86534 12.28873,-58.79664 17.24448,-87.71841 -1.72969,-21.20615 -7.80486,-45.603 7.24817,-63.38638 21.72899,-7.39295 18.47839,-31.55451 -3.36352,-35.81641 -9.44344,-7.43786 -17.94273,-1.32742 -28.79087,-5.23655 -14.77721,-0.93592 -30.572192,4.25892 -44.486552,-1.87458 -9.000412,8.0274 -21.279899,-1.34113 -25.349379,-10.42493 -11.54346,-7.02901 -24.754175,-14.16089 -32.163692,-27.06826 -1.42129,-16.2231 -3.325755,-32.42355 4.144761,-47.64117 4.767688,-19.76796 7.487061,-40.19593 21.728754,-55.07574 7.068791,-14.02932 9.768331,-33.35861 26.179936,-39.24314 18.201123,-14.50655 35.974952,-28.09654 58.284092,-35.58126 36.04713,-15.99431 71.22123,-35.09423 107.50158,-50.0258 20.67765,-2.84693 42.52515,-1.40988 60.29355,10.67269 16.72649,6.65219 33.05379,12.96339 46.25304,24.82278 18.30649,1.55812 34.52974,10.46926 49.01947,21.32754 12.80045,-1.66606 28.01156,5.9383 39.7718,12.55769 12.08886,7.30486 27.59106,9.31448 40.95153,8.01891 23.81445,-14.83995 50.72348,-25.54491 68.8505,-47.89782 19.24682,-23.66479 30.53455,-55.57653 29.19657,-86.31982 -2.48158,-17.13784 -0.76566,-36.86807 -10.36345,-51.219186 -6.77215,-22.085618 15.23741,-36.02612 27.75253,-50.572829 20.47172,1.208073 42.62156,-6.76328 61.21951,4.499406 11.52774,6.87178 4.7347,22.744459 14.58973,28.777488 11.79883,9.658401 26.69603,13.741316 39.01709,22.227671 -17.23141,6.67481 -42.45309,-6.747438 -62.66867,-5.868587 -11.64692,-2.730296 -24.69189,-2.477269 -31.39486,9.008607 -8.61281,19.15354 0.0995,41.16752 -2.28241,61.40162 -1.50146,18.0268 2.77672,37.60673 -1.83016,55.00616 -16.65001,36.19389 -32.70787,73.66987 -60.43305,103.1337 -12.48323,23.12591 -32.88666,39.61173 -50.69186,58.26851 -13.38993,22.03255 -26.38262,44.22738 -45.38831,61.9678 -9.58048,7.06011 -7.77548,19.9966 -19.64634,25.00008 -13.56188,15.30706 -36.85169,12.90952 -50.27842,28.04541 -10.9882,6.82847 -20.94897,12.02945 -32.43128,14.3018 -10.69072,-0.22484 -15.96883,-11.47379 -19.77572,-10.84493 -15.59042,20.9627 -41.44368,43.01455 -41.50808,70.19469 8.64162,15.73683 1.67739,34.20492 9.1519,50.5042 9.91024,24.58971 19.71505,50.33985 34.20505,72.6404 11.77312,10.38182 19.23171,23.89038 24.07061,37.40733 13.08075,13.71247 33.02985,15.28087 50.95054,16.04128 14.11875,4.10505 16.15284,16.41299 -1.2292,11.51378 -11.32968,0.60196 -24.70311,-4.81938 -32.54688,6.05622 -8.28989,-1.13543 -18.33079,2.63108 -24.97576,-3.63804 z"
           style="fill:#fbba40" />
        <path
           inkscape:connector-curvature="0"
           id="path3457"
           d="m 344.66581,758.67143 c -19.72515,-14.89695 -18.6644,-42.59464 -31.68946,-62.3174 -20.08858,-33.58441 -27.91604,-75.50821 -60.14893,-100.77078 -6.71609,-13.55563 -16.42454,-30.06178 -5.30735,-44.11113 5.33163,-12.52106 3.00698,-31.22296 -5.8312,-41.82713 -10.15762,-18.62698 -25.47245,-6.11141 -34.05136,6.57969 -12.11724,4.84104 -25.52193,13.15758 -21.30124,28.19863 -0.20689,16.93077 -20.09326,26.33357 -18.47543,43.907 -8.05381,43.23412 -16.97375,86.54842 -17.29695,130.68606 13.70197,12.08451 34.21427,4.44538 49.88447,12.97275 0.91367,12.28118 -19.73321,3.58209 -28.24859,6.68797 -9.08982,5.47465 -24.60488,-14.19377 -23.48168,-4.86487 4.65813,4.23172 23.77609,8.58929 10.1885,15.50171 -14.6501,5.92295 -23.57037,-11.11432 -34.36113,-16.73987 -7.81648,-10.49167 -5.42379,-25.51048 -3.19574,-37.65961 6.95529,-14.04874 11.79363,-28.32291 14.12078,-44.93975 6.7627,-23.26936 7.0834,-48.15046 13.98602,-71.0802 -1.39681,-22.57601 -8.41118,-46.98361 7.24329,-66.6621 22.92697,-7.87212 17.67884,-32.14633 -4.72982,-35.9769 -14.39246,-4.40246 -9.04106,-26.61429 6.19374,-25.08472 14.44147,-0.29938 2.99473,42.57358 15.0876,16.90254 0.41407,-8.70235 17.82255,-30.42262 14.08169,-11.0537 -2.30954,24.42599 13.40548,-5.24802 22.18241,-8.94831 7.20765,3.50055 -3.31669,34.69842 9.31186,27.38231 5.0599,-9.122 9.84052,-17.69417 19.10535,-24.73248 6.71213,7.99253 -0.55773,24.28559 16.86219,7.93912 10.73277,4.53277 17.11132,2.74114 28.14867,7.31157 19.49335,4.05025 30.93088,5.70499 39.44162,20.27662 9.07367,8.4413 8.15474,19.35304 -4.12946,28.1502 -12.77157,14.57304 -24.37016,31.48427 -30.56541,49.70521 -1.49406,11.14713 8.76519,20.85605 5.41545,32.69187 0.4587,31.92886 20.64745,59.43374 32.50175,88.00406 6.99518,16.13055 26.80476,25.59927 27.07495,44.66173 13.2588,15.05079 33.96283,17.94329 52.98965,18.33859 14.84726,3.74605 16.17415,14.87172 -1.22796,10.74761 -12.4528,-0.15 -25.21421,1.32857 -36.47051,-5.13566 21.6461,13.428 -16.19663,17.25446 -22.65514,5.77249 l -0.65362,-0.51312 9.9e-4,0 z m 16.63736,-11.12865 c -13.37691,-11.32288 4.77056,10.21524 0,0 z m 36.21557,-265.0026 c -3.54678,-18.34597 24.84482,-31.17453 13.85326,-47.44198 2.10838,-9.65954 11.66135,13.65753 14.22311,18.39203 6.10429,5.56897 26.16764,-0.79021 11.81865,10.77957 -5.52092,8.00278 -40.16065,28.51127 -39.89502,18.27038 z M 102.0851,470.47975 c -2.387482,-6.38365 6.93693,-25.39757 17.31572,-18.21045 7.05763,6.89492 23.24156,12.77557 4.18834,19.51482 -7.00449,-0.7807 -15.13645,1.55896 -21.50406,-1.30437 z m -25.15039,-3.54217 c -4.170691,-7.95601 1.182965,-22.47419 12.596641,-16.172 12.440289,0.66334 -3.043409,21.34244 -11.028771,18.06118 l -1.271432,-1.53199 -0.296438,-0.35719 0,0 z m 423.56183,-94.10477 c 6.60237,-21.39411 -18.28829,-21.22711 -29.06416,-32.69817 -10.81618,-9.97016 -22.00862,-17.6675 -30.12531,-29.22848 -12.72692,-11.88031 -22.19793,-25.09672 -34.54747,-35.2088 -18.25692,-9.32316 -4.71777,-21.00336 10.8798,-9.18862 16.59375,6.7424 31.84807,17.0307 50.46642,16.06085 21.81297,-1.5187 41.55063,-21.4969 60.73079,-32.42376 25.52668,-19.36336 40.18659,-49.22641 44.58351,-80.68653 6.9554,-0.30822 0.45687,22.55338 2.00172,31.56298 -9.68191,23.63308 -19.07541,47.92703 -30.8212,70.8624 9.4103,3.64567 -9.14922,18.65969 5.95201,20.52077 11.40012,2.29502 18.21136,-10.58882 23.68853,-18.65363 7.90162,-27.49744 34.65181,-49.49088 30.19728,-79.83209 0.49616,-11.09048 -2.17202,-22.82229 4.21736,-32.71837 7.11547,17.60217 0.25502,37.46474 1.27969,56.052 -18.94453,36.79786 -31.88081,78.17964 -62.96599,107.02653 -11.01318,17.85151 -22.75683,35.77578 -40.30064,47.25834 -1.41777,2.18296 -3.94406,3.56218 -6.17234,1.29458 z m 105.4189,-242.39399 c 2.42372,-9.93185 -18.14973,-31.544698 -3.8428,-32.152692 16.45039,2.930912 3.90167,26.138862 6.81336,38.453462 -5.39379,1.42649 -2.05949,-3.402 -2.97056,-6.30077 z m 80.06229,-28.64691 c -17.75556,-3.853055 -52.80544,-1.13613 -25.61743,-24.353605 16.91664,-5.312522 11.709,24.046515 20.46177,12.011545 9.3325,0.723632 40.62335,17.88091 13.35106,13.77476 l -4.08046,-0.66085 -4.11494,-0.77185 0,0 z m -65.7423,-20.324548 c -4.15286,-10.815418 -19.58201,-13.07519 -26.67809,-15.174126 0.58458,14.482369 -13.93885,10.851661 -6.94081,-3.044009 11.51805,-12.579594 31.07662,-4.225886 45.42734,-2.270841 25.1152,6.33924 22.05481,27.418697 -3.93315,24.889471 -5.11498,1.275459 -6.50801,1.023384 -7.87529,-4.400495 z m 10.62227,-7.414475 c -0.21195,-18.039233 -24.11227,0.05768 -1.61179,1.38978 l 1.61179,-1.38978 0,0 z"
           style="fill:#dc0b65" />
      </g>
    </g>
  </g>
</svg>
