<?xml version="1.0" encoding="UTF-8" standalone="no"?>
<!-- Created with Inkscape (http://www.inkscape.org/) -->

<svg
   xmlns:dc="http://purl.org/dc/elements/1.1/"
   xmlns:cc="http://creativecommons.org/ns#"
   xmlns:rdf="http://www.w3.org/1999/02/22-rdf-syntax-ns#"
   xmlns:svg="http://www.w3.org/2000/svg"
   xmlns="http://www.w3.org/2000/svg"
   xmlns:sodipodi="http://sodipodi.sourceforge.net/DTD/sodipodi-0.dtd"
   xmlns:inkscape="http://www.inkscape.org/namespaces/inkscape"
   width="210mm"
   height="297mm"
   id="svg3338"
   version="1.1"
   inkscape:version="0.48.5 r10040"
   sodipodi:docname="Nandu.svg">
  <defs
     id="defs3340" />
  <sodipodi:namedview
     id="base"
     pagecolor="#ffffff"
     bordercolor="#666666"
     borderopacity="1.0"
     inkscape:pageopacity="0.0"
     inkscape:pageshadow="2"
     inkscape:zoom="0.7"
     inkscape:cx="40.886916"
     inkscape:cy="470.92117"
     inkscape:document-units="px"
     inkscape:current-layer="g3455"
     showgrid="false"
     inkscape:window-width="1587"
     inkscape:window-height="890"
     inkscape:window-x="3"
     inkscape:window-y="75"
     inkscape:window-maximized="0" />
  <metadata
     id="metadata3343">
    <rdf:RDF>
      <cc:Work
         rdf:about="">
        <dc:format>image/svg+xml</dc:format>
        <dc:type
           rdf:resource="http://purl.org/dc/dcmitype/StillImage" />
        <dc:title></dc:title>
      </cc:Work>
    </rdf:RDF>
  </metadata>
  <g
     inkscape:label="Ebene 1"
     inkscape:groupmode="layer"
     id="layer1">
    <g
       id="g3455"
       transform="translate(61.619306,-79.296977)">
      <path
         style="fill:#fbba40"
         d="m 302.24609,938.83798 c -24.233,-13.13376 -20.68931,-43.66498 -34.58633,-64.23687 -19.42036,-33.26742 -28.19651,-73.93546 -58.50909,-99.7026 -11.18468,-13.40677 -17.04528,-34.36336 -6.16377,-49.80275 4.88093,-16.80059 -2.76923,-39.88874 -18.07603,-47.98416 -12.91534,-1.8798 -15.03984,17.28015 -27.37773,19.25805 -11.09114,2.94381 -19.46364,12.20984 -16.88306,24.21031 0.12685,16.60844 -18.03286,26.96492 -18.04657,43.97493 -7.80686,43.09358 -17.21109,86.17794 -17.65889,130.14358 12.90466,16.30062 40.01073,2.01562 52.53635,18.19702 -10.37672,9.27731 -33.855,-2.26765 -39.75334,11.3669 C 102.105,936.6057 88.424655,916.11365 77.130531,907.09313 69.409228,898.713 76.355142,884.1751 74.599632,873.29034 78.11083,862.59397 86.168795,853.12815 86.219365,840.89606 93.354098,812.03088 98.507786,782.0997 103.46388,753.1781 c -1.72965,-21.20625 -7.804873,-45.60308 7.24795,-63.3867 17.84483,-6.07294 21.63732,-28.83513 0.44601,-33.52756 -10.0948,-10.31204 -19.35659,-3.0444 -30.609915,-7.58905 -15.429061,-0.98451 -31.914987,4.39722 -46.476853,-1.81106 -9.00023,8.02723 -21.279651,-1.34087 -25.3491286,-10.42455 -11.5432726,-7.02945 -24.7544304,-14.16103 -32.1639424,-27.06864 -1.421282,-16.2231 -3.325705,-32.42355 4.144761,-47.64117 4.767896,-19.76767 7.486693,-40.19581 21.7285769,-55.07532 C 9.500197,492.62459 12.199723,473.29511 28.611452,467.41049 46.812584,452.90395 64.58647,439.31408 86.895544,431.82923 122.94258,415.83488 158.11667,396.73519 194.3969,381.80345 c 20.67772,-2.8469 42.52529,-1.40995 60.29377,10.67267 16.72635,6.65232 33.05376,12.96312 46.25282,24.82273 18.30656,1.55814 34.5299,10.46926 49.01969,21.32759 12.80046,-1.66613 28.01155,5.93843 39.7718,12.55769 12.08886,7.30488 27.59084,9.31429 40.95133,8.01903 23.81411,-14.8399 50.72302,-25.54454 68.84989,-47.89714 19.24741,-23.66455 30.53499,-55.57657 29.19744,-86.31995 -2.48166,-17.13795 -0.76554,-36.86841 -10.36349,-51.21963 -6.77221,-22.0857 15.23727,-36.02633 27.75251,-50.57306 20.47177,1.20785 42.62149,-6.76293 61.21951,4.49941 11.52735,6.87172 4.73513,22.74375 14.58916,28.77712 11.79903,9.65849 26.69637,13.74165 39.01766,22.22804 -17.23122,6.67491 -42.45282,-6.74744 -62.66822,-5.86854 -11.64672,-2.72983 -24.69191,-2.47789 -31.39483,9.00808 -8.61376,19.1533 0.0993,41.16796 -2.28289,61.4021 -1.50106,18.02675 2.77617,37.6063 -1.82996,55.00576 -16.65008,36.19401 -32.70798,73.67015 -60.43325,103.1341 -12.48332,23.12574 -32.88644,39.61172 -50.69173,58.26832 -13.3899,22.03221 -26.38217,44.22698 -45.38767,61.96715 -9.58064,7.06045 -7.77634,19.997 -19.64711,25.00092 -13.56191,15.307 -36.85169,12.90954 -50.27842,28.04541 -10.98814,6.82855 -20.94904,12.02931 -32.43128,14.3018 -10.69066,-0.22495 -15.96882,-11.47378 -19.77572,-10.84493 -15.59054,20.96261 -41.44304,43.01428 -41.50824,70.19427 8.64177,15.73672 1.67754,34.20473 9.15189,50.50396 9.90993,24.58993 19.71522,50.33989 34.20492,72.64072 11.77292,10.38191 19.23216,23.89014 24.07058,37.40736 13.08078,13.71268 33.03003,15.28118 50.95087,16.04159 14.11713,4.10432 16.15414,16.41281 -1.22762,11.51384 -11.33014,0.60212 -24.70421,-4.81956 -32.54846,6.05616 -8.28988,-1.13536 -18.3308,2.63097 -24.97576,-3.63804 z"
         id="path3459"
         inkscape:connector-curvature="0" />
      <path
         style="fill:#dc0b65"
         d="m 298.95152,935.81429 c -10.67893,-8.38342 -11.648,-9.94534 -17.96815,-28.96043 l -5.18773,-15.60798 -8.53358,-17.74899 c -4.69346,-9.76195 -10.01374,-20.08398 -11.82283,-22.93785 -1.80909,-2.85388 -4.07036,-7.66788 -5.02506,-10.69779 -0.95469,-3.02991 -5.67986,-13.45681 -10.50037,-23.17091 l -8.76458,-17.66198 -5.26252,-6.47973 c -5.27845,-6.49934 -7.8083,-9.22887 -14.93722,-16.11619 l -3.83635,-3.70633 -5.06341,-10.95715 -5.06341,-10.95714 0,-6.4899 0,-6.48989 3.89697,-7.45281 3.89697,-7.4528 -0.8127,-10.68093 c -0.44698,-5.87451 -1.51928,-13.01591 -2.38289,-15.86978 l -1.57019,-5.18887 -6.46716,-7.04202 -6.46716,-7.04203 -5.38658,0 -5.38657,0 -2.12951,4.07696 c -3.04978,5.83879 -9.32848,11.14323 -18.70208,15.80009 l -8.15393,4.0509 -3.3357,3.68528 -3.3357,3.68529 -0.0196,9.18314 -0.0196,9.18316 -5.81838,10.49034 c -3.20009,5.76969 -6.86054,11.35528 -8.13433,12.41243 l -2.31601,1.92207 0,3.04891 c 0,1.6769 -0.63154,5.09769 -1.40342,7.60176 -0.77188,2.50407 -2.81361,12.8921 -4.53717,23.08451 -1.72356,10.1924 -3.75883,21.86734 -4.52281,25.94431 -0.76399,4.07696 -2.65846,15.7519 -4.20994,25.94431 l -2.82088,18.53165 -0.99917,20.20566 -0.99917,20.20567 4.18679,2.94772 4.18678,2.9477 14.82532,1.56418 14.82532,1.56417 5.93013,1.97448 5.93013,1.9745 0,2.9586 0,2.9586 -16.30785,0.44497 -16.30786,0.44496 -4.77459,-0.87459 -4.77459,-0.87459 -4.55385,-3.83181 -4.55385,-3.83181 -0.99685,0.99684 -0.99685,0.99685 1.53602,2.43508 1.53601,2.43509 6.06733,2.02244 6.06733,2.02244 0.89436,2.33067 0.89436,2.33067 -1.65708,1.99666 -1.65708,1.99666 -5.0646,0.95011 -5.0646,0.95013 -4.22826,-1.75139 -4.228246,-1.7514 -5.01287,-5.23325 c -2.75707,-2.8783 -6.51362,-5.81913 -8.34788,-6.53521 l -3.33501,-1.30195 -2.96021,-4.85517 -2.9602,-4.85519 -0.006,-11.96181 -0.006,-11.96181 2.22847,-7.50409 2.22848,-7.5041 2.13844,-1.77474 2.13843,-1.77475 1.73783,-8.40999 c 0.9558,-4.6255 2.92138,-13.41354 4.36795,-19.52898 5.45833,-23.07537 7.25966,-32.27961 8.99439,-45.95849 l 1.78611,-14.08406 2.179516,-6.61139 2.17953,-6.61141 -1.81823,-20.95822 -1.81822,-20.95823 2.52636,-8.75241 c 1.3895,-4.81382 3.79873,-10.82786 5.35384,-13.36453 l 2.82747,-4.61212 6.30723,-4.22846 c 3.46897,-2.32565 6.55875,-4.39336 6.86618,-4.59493 0.30742,-0.20156 1.1048,-3.22827 1.77196,-6.72601 l 1.213,-6.35953 -5.46208,-4.81823 c -3.00415,-2.65002 -6.13652,-4.8309 -6.96083,-4.84639 -0.8243,-0.0154 -4.63368,-1.997 -8.46528,-4.40335 l -6.966546,-4.37516 -0.95245,-5.07702 -0.95245,-5.07702 1.73757,-3.24667 1.737566,-3.24668 5.02191,-2.09829 c 5.84292,-2.44133 8.0017,-2.57256 11.01126,-0.66939 l 2.18778,1.3835 0.4207,7.11836 c 0.23138,3.9151 0.59066,9.11978 0.79841,11.56596 l 0.37771,4.44759 1.46141,0.11757 1.4614,0.11771 4.92942,-11.44706 4.92944,-11.44707 2.91162,-3.12525 c 1.60138,-1.7189 3.64781,-3.12527 4.54759,-3.12527 l 1.63598,0 -0.93529,8.94831 -0.93528,8.94831 2.48261,0.95268 2.48261,0.95266 1.57717,-2.77845 c 0.86745,-1.52813 4.50382,-5.98357 8.08081,-9.90097 l 6.50363,-7.12254 2.02093,0 c 2.41573,0 2.2798,-0.75366 2.60269,14.4306 l 0.25958,12.20679 1.90627,1.87726 1.90625,1.87726 3.60319,-4.15963 3.60321,-4.15965 0,-2.56749 0,-2.56748 7.41407,-7.30258 7.41405,-7.30258 2.36713,2.36713 2.36712,2.36711 -1.62726,3.04055 c -0.89499,1.67232 -1.62726,4.08514 -1.62726,5.36183 l 0,2.32126 2.88869,0 2.88868,0 3.99919,-3.70633 c 4.7146,-4.36933 6.11358,-4.54391 9.78529,-1.22105 l 2.7462,2.48527 1.74401,-1.74401 c 0.9592,-0.9592 2.78437,-1.744 4.05594,-1.744 l 2.31195,0 1.77543,2.84293 1.77544,2.84293 2.85561,-0.74676 2.85559,-0.74676 4.99141,2.61522 c 5.59975,2.93395 15.43746,5.19808 24.13877,5.55552 l 5.80458,0.23844 0.3665,1.48253 c 0.20158,0.81539 0.77683,3.33985 1.27836,5.60992 l 0.91184,4.12738 3.66543,1.67007 3.66543,1.67009 0,2.00034 0,2.00033 2.96506,2.53878 2.96507,2.53876 0,1.98981 0,1.98981 -5.82492,6.94654 c -3.20369,3.82059 -8.84981,10.6158 -12.54692,15.10046 l -6.72204,8.15393 -8.30567,14.4791 -8.3057,14.47912 -0.77351,4.7938 -0.77353,4.79381 3.09449,7.83818 3.09449,7.83817 0,10.23085 0,10.23084 2.21734,9.56098 2.21735,9.56098 4.98762,10.91582 c 2.74319,6.00373 7.56796,16.9201 10.7217,24.25863 3.15375,7.33854 8.28524,18.01277 11.40329,23.72051 l 5.6692,10.37773 5.62735,5.93013 c 3.09505,3.26157 7.69129,8.93225 10.21388,12.60152 l 4.58652,6.67139 0.96623,5.41406 0.96622,5.41406 3.9445,3.77906 3.9445,3.77908 9.63121,4.33816 9.63123,4.33815 12.91911,1.05207 12.9191,1.05207 6.35382,3.20703 6.3538,3.20703 0,2.2238 0,2.2238 -18.76203,-0.15355 -18.76204,-0.15354 -6.44101,-2.47131 -6.44101,-2.47131 4.07696,3.66564 c 7.10357,6.38689 4.89406,8.25602 -9.75771,8.25453 l -9.14457,-9.4e-4 -8.48344,-6.65986 z m 16.63736,-11.12865 c -0.87276,-1.63079 -2.23051,-2.96507 -3.01722,-2.96507 -2.34919,0 -1.6214,2.70647 1.16406,4.32885 3.56441,2.07608 3.65747,2.00758 1.85316,-1.36378 z m 36.21557,-265.0026 c 0.53924,-2.24233 1.51704,-6.41195 2.17289,-9.26583 1.8555,-8.07418 5.34042,-15.34896 9.5059,-19.84358 l 3.81014,-4.11121 0.96436,-4.39071 0.96436,-4.3907 -2.47328,-3.77471 -2.4733,-3.77471 0.86558,-0.86557 0.86558,-0.86557 3.65205,3.43093 3.65207,3.43094 2.4008,7.22814 2.40081,7.22815 4.42721,2.28941 4.42723,2.2894 4.19825,-0.92209 4.19825,-0.92209 1.1111,1.79779 1.1111,1.79779 -7.47695,6.81356 c -4.1123,3.74747 -8.62673,7.74396 -10.03206,8.88111 -4.05425,3.28057 -16.75255,9.05145 -19.91693,9.05145 l -2.88484,0 -0.91625,1.48253 c -0.50394,0.81539 -1.95537,1.48253 -3.22538,1.48253 l -2.30913,0 0.98044,-4.07696 z m -295.433636,-12.06043 -1.99874,-1.26666 4.22254,-8.71772 4.22253,-8.71773 4.73082,-0.45804 4.73082,-0.45805 2.86716,2.86716 c 1.57694,1.57694 3.19696,3.78448 3.60004,4.90564 l 0.73289,2.03848 2.99893,-1.7659 2.99893,-1.76592 0.9011,0.9011 c 0.4956,0.49561 0.9011,2.68793 0.9011,4.87184 l 0,3.97072 -2.71117,2.45358 -2.71117,2.45357 -11.74352,-0.0227 -11.74352,-0.0227 -1.99874,-1.26666 z m -25.15039,-3.54217 -1.567871,-1.88916 0.837333,-6.24279 0.837334,-6.24278 1.814487,-1.5059 1.814486,-1.50588 6.88845,0.94416 6.888449,0.94417 0,2.49405 0,2.49405 -4.764858,6.19963 -4.764857,6.19963 -3.207542,0 -3.207541,0 -1.56787,-1.88918 z M 454.78225,549.97567 c -0.0906,-0.61154 -0.25734,-4.38929 -0.37064,-8.395 l -0.20596,-7.28309 -7.41267,-4.27445 c -4.07696,-2.35094 -9.53308,-5.23357 -12.12472,-6.40586 l -4.71205,-2.13142 -7.14821,-7.09799 c -3.9315,-3.90391 -9.96282,-8.99483 -13.40292,-11.31317 l -6.25472,-4.21518 -0.857,-2.7002 -0.85701,-2.70018 -8.53291,-7.89997 c -4.6931,-4.34497 -8.96911,-9.0367 -9.50226,-10.42602 l -0.96934,-2.52607 -4.88273,-2.041 c -5.8143,-2.43039 -8.40809,-5.29488 -9.89716,-10.93008 l -1.10237,-4.17174 -5.50427,-2.62403 -5.50427,-2.62404 -2.4514,-5.14064 -2.4514,-5.14065 1.0517,-1.05167 1.05169,-1.0517 7.73858,2.46313 c 4.2562,1.35473 9.40642,2.86536 11.4449,3.35695 2.03848,0.49161 9.77426,3.8457 17.19061,7.45354 l 13.48428,6.5597 13.85065,1.43297 13.85065,1.43297 6.89159,-4.95111 c 3.79038,-2.72312 9.99442,-6.32365 13.78675,-8.00118 3.79233,-1.67753 10.40601,-5.31006 14.69704,-8.07229 4.29104,-2.76222 9.46973,-6.07638 11.50821,-7.36478 2.03849,-1.28841 8.79203,-7.24207 15.00789,-13.23037 l 11.30153,-10.88782 2.5853,-5.18886 c 1.42191,-2.85388 3.77103,-6.52314 5.22026,-8.15393 l 2.63497,-2.96506 4.32595,-11.11899 c 4.98158,-12.80413 7.35664,-20.6891 8.58057,-28.48674 l 0.86447,-5.50749 1.5868,-0.98069 1.58679,-0.98069 -0.61547,17.60717 -0.61547,17.60717 -7.70014,16.81138 c -4.23508,9.24627 -7.70014,17.83445 -7.70014,19.08484 0,1.25038 -1.90424,6.02735 -4.23164,10.61545 -2.32739,4.58811 -5.78381,11.56374 -7.68092,15.50138 l -3.44929,7.15937 2.02672,1.2526 2.02674,1.25259 -2.72643,6.04612 -2.72642,6.04613 2.68027,2.96167 2.68027,2.96166 5.19025,0 5.19026,0 6.88472,-7.48869 6.8847,-7.48868 4.13168,-9.93107 c 5.93072,-14.2553 6.17439,-14.73641 13.64852,-26.94895 3.73217,-6.09826 8.39693,-15.05288 10.36615,-19.89915 l 3.58039,-8.8114 0,-20.32963 0,-20.32964 2.10868,-4.98844 2.10868,-4.98844 1.69683,4.43432 1.69681,4.43432 -1.05697,23.59168 -1.05698,23.59168 -6.45486,12.65009 c -3.55017,6.95756 -6.45486,13.64389 -6.45486,14.85853 0,1.21463 -6.0585,13.5988 -13.46333,27.52038 l -13.46333,25.31195 -3.58579,3.39569 c -1.97218,1.86764 -3.58579,4.08536 -3.58579,4.9283 0,0.84292 -3.59056,5.31911 -7.97901,9.94709 l -7.97902,8.4145 -7.12335,11.11899 c -3.91784,6.11544 -10.12261,14.61517 -13.78838,18.88828 l -6.66502,7.7693 -2.40247,0.76251 c -1.32137,0.4194 -4.70204,3.07307 -7.51263,5.89706 l -5.11014,5.13454 -1.85316,0.0471 c -1.01924,0.0259 -1.92727,-0.45328 -2.01783,-1.06483 z m 105.4189,-242.39399 -0.006,-6.30076 -2.93848,-4.81947 c -1.61617,-2.65072 -3.69119,-7.80874 -4.61116,-11.46227 l -1.67269,-6.64279 0.81006,-2.11095 0.81004,-2.11095 5.65982,1.94576 5.65983,1.94576 -0.0741,5.32669 c -0.0404,2.92969 -0.20717,10.99739 -0.37025,17.92822 l -0.29651,12.60153 -1.48253,0 -1.48253,0 -0.006,-6.30077 z m 80.06229,-28.64691 c -20.0529,-4.05564 -26.25971,-5.08069 -30.7643,-5.08069 l -4.64149,0 -0.88217,-1.42738 -0.88216,-1.42739 3.70403,-5.61464 c 2.03722,-3.08806 4.63657,-6.78214 5.77634,-8.20908 l 2.07232,-2.59443 2.08684,0 c 1.14776,0 4.5824,1.69578 7.63252,3.76839 l 5.54568,3.76839 -0.86421,3.44333 -0.86423,3.44334 2.29487,0.88063 2.29489,0.88063 1.36315,-2.43585 1.36318,-2.43585 9.4244,4.14853 c 5.18342,2.28169 10.94672,5.10269 12.80734,6.26888 l 3.38293,2.12036 -0.876,1.4174 -0.876,1.4174 -4.73074,-0.19151 c -2.60191,-0.10533 -9.06714,-1.06854 -14.36719,-2.14046 z m -65.7423,-20.32455 -2.14097,-5.12408 -3.45154,-2.41755 -3.45154,-2.41756 -3.10911,0 -3.10911,0 -3.22261,-3.70633 c -3.72446,-4.2835 -5.15493,-4.54689 -8.19321,-1.50861 l -2.19772,2.19772 0.71235,2.72408 0.71237,2.72407 -2.26192,1.87723 -2.26193,1.87724 -1.54749,-0.9564 -1.54746,-0.95639 0,-5.58421 0,-5.5842 3.49373,-3.2822 3.49375,-3.2822 5.45688,-0.88553 5.45687,-0.88553 13.62164,1.86149 13.62166,1.86148 7.55256,4.26241 c 4.15391,2.34432 9.11676,5.92741 11.02855,7.96241 l 3.47597,3.7 -2.6469,2.92479 -2.6469,2.92479 -4.63896,1.43576 c -2.55142,0.78966 -8.10823,1.87352 -12.34847,2.40858 l -7.70951,0.97281 -2.14098,-5.12407 z m 10.62227,-7.41448 1.57927,-1.90288 -1.0271,-1.5815 c -0.56491,-0.86983 -2.58029,-2.39989 -4.47864,-3.40014 l -3.45155,-1.81863 -2.10795,0.80889 -2.10795,0.8089 0,2.18626 0,2.18626 3.29494,2.30787 c 4.00619,2.80604 6.21675,2.91391 8.29898,0.40497 z"
         id="path3457"
         inkscape:connector-curvature="0" />
    </g>
  </g>
</svg>
