<?xml version="1.0" encoding="UTF-8" standalone="no"?>
<!-- Created with Inkscape (http://www.inkscape.org/) -->

<svg
   xmlns:dc="http://purl.org/dc/elements/1.1/"
   xmlns:cc="http://creativecommons.org/ns#"
   xmlns:rdf="http://www.w3.org/1999/02/22-rdf-syntax-ns#"
   xmlns:svg="http://www.w3.org/2000/svg"
   xmlns="http://www.w3.org/2000/svg"
   xmlns:sodipodi="http://sodipodi.sourceforge.net/DTD/sodipodi-0.dtd"
   xmlns:inkscape="http://www.inkscape.org/namespaces/inkscape"
   width="81.176414mm"
   height="10.795mm"
   viewBox="0 0 287.63296 38.25"
   id="svg3851"
   version="1.1"
   inkscape:version="0.91 r13725"
   sodipodi:docname="schriftzug-lfn.svg">
  <defs
     id="defs3853" />
  <sodipodi:namedview
     id="base"
     pagecolor="#ffffff"
     bordercolor="#666666"
     borderopacity="1.0"
     inkscape:pageopacity="0.0"
     inkscape:pageshadow="2"
     inkscape:zoom="0.98994949"
     inkscape:cx="316.91214"
     inkscape:cy="-197.75642"
     inkscape:document-units="px"
     inkscape:current-layer="layer1"
     showgrid="false"
     fit-margin-top="0"
     fit-margin-left="0"
     fit-margin-right="0"
     fit-margin-bottom="0"
     inkscape:window-width="1920"
     inkscape:window-height="971"
     inkscape:window-x="0"
     inkscape:window-y="31"
     inkscape:window-maximized="1" />
  <metadata
     id="metadata3856">
    <rdf:RDF>
      <cc:Work
         rdf:about="">
        <dc:format>image/svg+xml</dc:format>
        <dc:type
           rdf:resource="http://purl.org/dc/dcmitype/StillImage" />
        <dc:title></dc:title>
      </cc:Work>
    </rdf:RDF>
  </metadata>
  <g
     inkscape:label="Ebene 1"
     inkscape:groupmode="layer"
     id="layer1"
     transform="translate(-58.087857,-62.819345)">
    <g
       style="font-style:normal;font-weight:normal;font-size:40px;line-height:125%;font-family:Sans;letter-spacing:0px;word-spacing:0px;fill:#000000;fill-opacity:1;stroke:none;stroke-width:1px;stroke-linecap:butt;stroke-linejoin:miter;stroke-opacity:1"
       id="text3859">
      <path
         d="m 58.087857,62.819345 5.715,0 0,32.4 -5.715,0 0,-32.4 z"
         style="font-style:normal;font-variant:normal;font-weight:900;font-stretch:normal;font-size:45px;font-family:'Swiss 911';-inkscape-font-specification:'Swiss 911 Heavy'"
         id="path3883" />
      <path
         d="m 73.474341,82.484345 q -1.035,0.81 -1.575,1.305 -0.495,0.45 -0.495,1.305 l 0,4.275 q 0,0.765 0.18,1.17 0.225,0.36 0.855,0.36 1.035,0 1.035,-1.53 l 0,-6.885 z m -7.83,-7.875 q 0,-2.97 1.71,-4.455 1.71,-1.485 5.04,-1.485 1.98,0 3.285,0.45 1.305,0.45 2.07,1.395 0.765,0.9 1.08,2.295 0.315,1.395 0.315,3.24 l 0,15.795 q 0,0.9 0.09,1.71 0.09,0.81 0.315,1.665 l -5.805,0 q -0.225,-0.99 -0.225,-1.8 l 0,-0.405 -0.09,0 q -1.26,2.655 -4.095,2.655 -3.69,0 -3.69,-4.365 l 0,-5.49 q 0,-1.89 0.675,-3.195 0.675,-1.35 2.43,-2.295 0.99,-0.54 1.845,-0.945 0.9,-0.45 1.53,-0.855 0.63,-0.45 0.99,-0.945 0.36,-0.495 0.36,-1.17 l 0,-1.845 q 0,-1.575 -1.08,-1.575 -0.99,0 -0.99,1.575 l 0,3.78 -5.76,0 0,-3.735 z"
         style="font-style:normal;font-variant:normal;font-weight:900;font-stretch:normal;font-size:45px;font-family:'Swiss 911';-inkscape-font-specification:'Swiss 911 Heavy'"
         id="path3885" />
      <path
         d="m 94.57231,95.219345 -5.625,0 0,-2.16 -0.135,0 q -1.395,2.61 -4.05,2.61 -3.735,0 -3.735,-4.365 l 0,-22.005 5.715,0 0,20.115 q 0,0.765 0.225,1.17 0.225,0.36 0.855,0.36 0.99,0 0.99,-1.53 l 0,-20.115 5.76,0 0,25.92 z"
         style="font-style:normal;font-variant:normal;font-weight:900;font-stretch:normal;font-size:45px;font-family:'Swiss 911';-inkscape-font-specification:'Swiss 911 Heavy'"
         id="path3887" />
      <path
         d="m 102.03317,79.199345 2.07,0 0,-4.905 q 0,-1.575 -1.035,-1.575 -1.035,0 -1.035,1.575 l 0,4.905 z m 0,10.8 q 0,1.575 1.035,1.575 1.035,0 1.035,-1.575 l 0,-4.86 5.715,0 0,4.815 q 0,2.79 -1.755,4.365 -1.755,1.53 -4.995,1.53 -1.98,0 -3.285001,-0.495 -1.305,-0.45 -2.07,-1.35 -0.765,-0.945 -1.08,-2.295 -0.315,-1.395 -0.315,-3.24 l 0,-12.42 q 0,-1.845 0.315,-3.24 0.315,-1.395 1.08,-2.295 0.765,-0.945 2.025,-1.395 1.305001,-0.45 3.285001,-0.45 3.24,0 4.995,1.485 1.8,1.485 1.8,4.095 l 0,8.82 -7.785,0 0,6.93 z"
         style="font-style:normal;font-variant:normal;font-weight:900;font-stretch:normal;font-size:45px;font-family:'Swiss 911';-inkscape-font-specification:'Swiss 911 Heavy'"
         id="path3889" />
      <path
         d="m 111.61325,69.299345 5.625,0 0,2.16 0.09,0 q 1.44,-2.655 4.095,-2.655 3.735,0 3.735,4.41 l 0,22.005 -5.76,0 0,-20.115 q 0,-0.765 -0.225,-1.125 -0.18,-0.405 -0.81,-0.405 -1.035,0 -1.035,1.53 l 0,20.115 -5.715,0 0,-25.92 z"
         style="font-style:normal;font-variant:normal;font-weight:900;font-stretch:normal;font-size:45px;font-family:'Swiss 911';-inkscape-font-specification:'Swiss 911 Heavy'"
         id="path3891" />
      <path
         d="m 134.77911,75.104345 q 0,-0.765 -0.225,-1.125 -0.18,-0.405 -0.81,-0.405 -1.035,0 -1.035,1.53 l 0,14.445 q 0,1.575 1.035,1.575 0.63,0 0.81,-0.405 0.225,-0.405 0.225,-1.17 l 0,-14.445 z m -7.785,-12.285 5.715,0 0,8.64 0.09,0 q 1.305,-2.655 4.005,-2.655 3.735,0 3.735,4.41 l 0,18.27 q 0,4.365 -3.735,4.365 -2.97,0 -4.095,-2.88 l -0.09,0 0,2.25 -5.625,0 0,-32.4 z"
         style="font-style:normal;font-variant:normal;font-weight:900;font-stretch:normal;font-size:45px;font-family:'Swiss 911';-inkscape-font-specification:'Swiss 911 Heavy'"
         id="path3893" />
      <path
         d="m 155.83208,95.219345 -5.625,0 0,-2.16 -0.135,0 q -1.395,2.61 -4.05,2.61 -3.735,0 -3.735,-4.365 l 0,-22.005 5.715,0 0,20.115 q 0,0.765 0.225,1.17 0.225,0.36 0.855,0.36 0.99,0 0.99,-1.53 l 0,-20.115 5.76,0 0,25.92 z"
         style="font-style:normal;font-variant:normal;font-weight:900;font-stretch:normal;font-size:45px;font-family:'Swiss 911';-inkscape-font-specification:'Swiss 911 Heavy'"
         id="path3895" />
      <path
         d="m 157.66793,69.299345 5.625,0 0,2.16 0.09,0 q 1.44,-2.655 4.095,-2.655 3.735,0 3.735,4.41 l 0,10.035 -5.76,0 0,-8.145 q 0,-0.765 -0.225,-1.125 -0.18,-0.405 -0.81,-0.405 -1.035,0 -1.035,1.53 l 0,20.115 -5.715,0 0,-25.92 z"
         style="font-style:normal;font-variant:normal;font-weight:900;font-stretch:normal;font-size:45px;font-family:'Swiss 911';-inkscape-font-specification:'Swiss 911 Heavy'"
         id="path3897" />
      <path
         d="m 178.14645,86.174345 q 0,0.765 0.18,1.17 0.225,0.405 0.855,0.405 1.035,0 1.035,-1.575 l 0,-11.25 q 0,-1.53 -1.035,-1.53 -0.63,0 -0.855,0.405 -0.18,0.36 -0.18,1.125 l 0,11.25 z m 1.98,3.33 q -1.215,2.88 -4.05,2.88 -1.935,0 -2.79,-1.035 -0.855,-1.08 -0.855,-3.33 l 0,-15.165 q 0,-1.98 0.945,-3.015 0.945,-1.035 2.745,-1.035 2.655,0 4.095,2.655 l 0.135,0 0,-2.16 5.58,0 0,24.39 q 0,1.845 -0.315,3.195 -0.315,1.395 -1.08,2.295 -0.765,0.945005 -2.07,1.395005 -1.305,0.495 -3.285,0.495 -3.24,0 -4.995,-1.575005 -1.755,-1.53 -1.755,-4.32 l 0,-1.98 5.715,0 0,2.025 q 0,1.575 1.035,1.575 1.035,0 1.035,-1.575 l 0,-5.715 -0.09,0 z"
         style="font-style:normal;font-variant:normal;font-weight:900;font-stretch:normal;font-size:45px;font-family:'Swiss 911';-inkscape-font-specification:'Swiss 911 Heavy'"
         id="path3899" />
      <path
         d="m 188.17442,88.604345 5.94,0 0,6.615 -5.94,0 0,-6.615 z"
         style="font-style:normal;font-variant:normal;font-weight:900;font-stretch:normal;font-size:45px;font-family:'Swiss 911';-inkscape-font-specification:'Swiss 911 Heavy'"
         id="path3901" />
      <path
         d="m 197.23981,73.394345 -1.395,0 0,-4.095 1.395,0 0,-2.475 q 0,-1.935 1.125,-2.97 1.17,-1.035 3.195,-1.035 l 3.24,0 0,4.05 q -1.845,0 -1.845,1.035 l 0,1.395 1.845,0 0,4.095 -1.845,0 0,21.825 -5.715,0 0,-21.825 z"
         style="font-style:normal;font-variant:normal;font-weight:900;font-stretch:normal;font-size:45px;font-family:'Swiss 911';-inkscape-font-specification:'Swiss 911 Heavy'"
         id="path3903" />
      <path
         d="m 205.832,69.299345 5.625,0 0,2.16 0.09,0 q 1.44,-2.655 4.095,-2.655 3.735,0 3.735,4.41 l 0,10.035 -5.76,0 0,-8.145 q 0,-0.765 -0.225,-1.125 -0.18,-0.405 -0.81,-0.405 -1.035,0 -1.035,1.53 l 0,20.115 -5.715,0 0,-25.92 z"
         style="font-style:normal;font-variant:normal;font-weight:900;font-stretch:normal;font-size:45px;font-family:'Swiss 911';-inkscape-font-specification:'Swiss 911 Heavy'"
         id="path3905" />
      <path
         d="m 226.31051,79.199345 2.07,0 0,-4.905 q 0,-1.575 -1.035,-1.575 -1.035,0 -1.035,1.575 l 0,4.905 z m 0,10.8 q 0,1.575 1.035,1.575 1.035,0 1.035,-1.575 l 0,-4.86 5.715,0 0,4.815 q 0,2.79 -1.755,4.365 -1.755,1.53 -4.995,1.53 -1.98,0 -3.285,-0.495 -1.305,-0.45 -2.07,-1.35 -0.765,-0.945 -1.08,-2.295 -0.315,-1.395 -0.315,-3.24 l 0,-12.42 q 0,-1.845 0.315,-3.24 0.315,-1.395 1.08,-2.295 0.765,-0.945 2.025,-1.395 1.305,-0.45 3.285,-0.45 3.24,0 4.995,1.485 1.8,1.485 1.8,4.095 l 0,8.82 -7.785,0 0,6.93 z"
         style="font-style:normal;font-variant:normal;font-weight:900;font-stretch:normal;font-size:45px;font-family:'Swiss 911';-inkscape-font-specification:'Swiss 911 Heavy'"
         id="path3907" />
      <path
         d="m 235.89059,69.299345 5.715,0 0,25.92 -5.715,0 0,-25.92 z m 0,-6.48 5.715,0 0,4.905 -5.715,0 0,-4.905 z"
         style="font-style:normal;font-variant:normal;font-weight:900;font-stretch:normal;font-size:45px;font-family:'Swiss 911';-inkscape-font-specification:'Swiss 911 Heavy'"
         id="path3909" />
      <path
         d="m 244.43708,73.394345 -1.395,0 0,-4.095 1.395,0 0,-2.475 q 0,-1.935 1.125,-2.97 1.17,-1.035 3.195,-1.035 l 3.24,0 0,4.05 q -1.845,0 -1.845,1.035 l 0,1.395 1.845,0 0,4.095 -1.845,0 0,21.825 -5.715,0 0,-21.825 z"
         style="font-style:normal;font-variant:normal;font-weight:900;font-stretch:normal;font-size:45px;font-family:'Swiss 911';-inkscape-font-specification:'Swiss 911 Heavy'"
         id="path3911" />
      <path
         d="m 266.57426,95.219345 -5.625,0 0,-2.16 -0.135,0 q -1.395,2.61 -4.05,2.61 -3.735,0 -3.735,-4.365 l 0,-22.005 5.715,0 0,20.115 q 0,0.765 0.225,1.17 0.225,0.36 0.855,0.36 0.99,0 0.99,-1.53 l 0,-20.115 5.76,0 0,25.92 z"
         style="font-style:normal;font-variant:normal;font-weight:900;font-stretch:normal;font-size:45px;font-family:'Swiss 911';-inkscape-font-specification:'Swiss 911 Heavy'"
         id="path3913" />
      <path
         d="m 268.41012,69.299345 5.625,0 0,2.16 0.09,0 q 1.44,-2.655 4.095,-2.655 3.735,0 3.735,4.41 l 0,22.005 -5.76,0 0,-20.115 q 0,-0.765 -0.225,-1.125 -0.18,-0.405 -0.81,-0.405 -1.035,0 -1.035,1.53 l 0,20.115 -5.715,0 0,-25.92 z"
         style="font-style:normal;font-variant:normal;font-weight:900;font-stretch:normal;font-size:45px;font-family:'Swiss 911';-inkscape-font-specification:'Swiss 911 Heavy'"
         id="path3915" />
      <path
         d="m 283.79098,62.819345 5.715,0 0,17.775 0.09,0 2.43,-11.295 5.85,0 -2.835,11.205 2.835,14.715 -6.03,0 -2.25,-13.59 -0.09,0 0,13.59 -5.715,0 0,-32.4 z"
         style="font-style:normal;font-variant:normal;font-weight:900;font-stretch:normal;font-size:45px;font-family:'Swiss 911';-inkscape-font-specification:'Swiss 911 Heavy'"
         id="path3917" />
      <path
         d="m 299.0045,88.604345 5.94,0 0,6.615 -5.94,0 0,-6.615 z"
         style="font-style:normal;font-variant:normal;font-weight:900;font-stretch:normal;font-size:45px;font-family:'Swiss 911';-inkscape-font-specification:'Swiss 911 Heavy'"
         id="path3919" />
      <path
         d="m 307.16989,69.299345 5.625,0 0,2.16 0.09,0 q 1.44,-2.655 4.095,-2.655 3.735,0 3.735,4.41 l 0,22.005 -5.76,0 0,-20.115 q 0,-0.765 -0.225,-1.125 -0.18,-0.405 -0.81,-0.405 -1.035,0 -1.035,1.53 l 0,20.115 -5.715,0 0,-25.92 z"
         style="font-style:normal;font-variant:normal;font-weight:900;font-stretch:normal;font-size:45px;font-family:'Swiss 911';-inkscape-font-specification:'Swiss 911 Heavy'"
         id="path3921" />
      <path
         d="m 328.17575,79.199345 2.07,0 0,-4.905 q 0,-1.575 -1.035,-1.575 -1.035,0 -1.035,1.575 l 0,4.905 z m 0,10.8 q 0,1.575 1.035,1.575 1.035,0 1.035,-1.575 l 0,-4.86 5.715,0 0,4.815 q 0,2.79 -1.755,4.365 -1.755,1.53 -4.995,1.53 -1.98,0 -3.285,-0.495 -1.305,-0.45 -2.07,-1.35 -0.765,-0.945 -1.08,-2.295 -0.315,-1.395 -0.315,-3.24 l 0,-12.42 q 0,-1.845 0.315,-3.24 0.315,-1.395 1.08,-2.295 0.765,-0.945 2.025,-1.395 1.305,-0.45 3.285,-0.45 3.24,0 4.995,1.485 1.8,1.485 1.8,4.095 l 0,8.82 -7.785,0 0,6.93 z"
         style="font-style:normal;font-variant:normal;font-weight:900;font-stretch:normal;font-size:45px;font-family:'Swiss 911';-inkscape-font-specification:'Swiss 911 Heavy'"
         id="path3923" />
      <path
         d="m 336.85583,69.299345 1.44,0 0,-4.815 5.76,0 0,4.815 1.665,0 0,4.14 -1.665,0 0,15.75 q 0,1.035 0.225,1.44 0.225,0.405 1.26,0.405 l 0.18,0 0,4.185 -3.6,0 q -1.215,0 -1.98,-0.27 -0.72,-0.315 -1.17,-0.9 -0.405,-0.585 -0.54,-1.44 -0.135,-0.855 -0.135,-1.935 l 0,-17.235 -1.44,0 0,-4.14 z"
         style="font-style:normal;font-variant:normal;font-weight:900;font-stretch:normal;font-size:45px;font-family:'Swiss 911';-inkscape-font-specification:'Swiss 911 Heavy'"
         id="path3925" />
    </g>
  </g>
</svg>
